HIERARCHY
ROOT root
{
	OFFSET 0.000000 0.000000 0.000000
	CHANNELS 6 Xposition Yposition Zposition Zrotation Yrotation Xrotation
	JOINT lhip
	{
		OFFSET 0.058581 -0.082280 -0.017664
		CHANNELS 3 Zrotation Yrotation Xrotation
		JOINT lknee
		{
			OFFSET 0.043451 -0.386469 0.008037
			CHANNELS 3 Zrotation Yrotation Xrotation
			JOINT lankle
			{
				OFFSET -0.014790 -0.426874 -0.037428
				CHANNELS 3 Zrotation Yrotation Xrotation
				JOINT ltoe
				{
					OFFSET 0.041054 -0.060286 0.122042
					CHANNELS 3 Zrotation Yrotation Xrotation
					End Site
					{
						OFFSET 0.000000 0.000000 0.000000
					}
				}
			}
		}
	}
	JOINT rhip
	{
		OFFSET -0.060310 -0.090513 -0.013543
		CHANNELS 3 Zrotation Yrotation Xrotation
		JOINT rknee
		{
			OFFSET -0.043257 -0.383688 -0.004843
			CHANNELS 3 Zrotation Yrotation Xrotation
			JOINT rankle
			{
				OFFSET 0.019056 -0.420046 -0.034562
				CHANNELS 3 Zrotation Yrotation Xrotation
				JOINT rtoe
				{
					OFFSET -0.034840 -0.062106 0.130323
					CHANNELS 3 Zrotation Yrotation Xrotation
					End Site
					{
						OFFSET 0.000000 0.000000 0.000000
					}
				}
			}
		}
	}
	JOINT lowerback
	{
		OFFSET 0.004439 0.124404 -0.038385
		CHANNELS 3 Zrotation Yrotation Xrotation
		JOINT upperback
		{
			OFFSET 0.004488 0.137956 0.026820
			CHANNELS 3 Zrotation Yrotation Xrotation
			JOINT chest
			{
				OFFSET -0.002265 0.056032 0.002855
				CHANNELS 3 Zrotation Yrotation Xrotation
				JOINT lowerneck
				{
					OFFSET -0.013390 0.211636 -0.033468
					CHANNELS 3 Zrotation Yrotation Xrotation
					JOINT upperneck
					{
						OFFSET 0.010113 0.088937 0.050410
						CHANNELS 3 Zrotation Yrotation Xrotation
						End Site
						{
							OFFSET 0.000000 0.000000 0.000000
						}
					}
				}
				JOINT lclavicle
				{
					OFFSET 0.071702 0.114000 -0.018898
					CHANNELS 3 Zrotation Yrotation Xrotation
					JOINT lshoulder
					{
						OFFSET 0.122921 0.045205 -0.019046
						CHANNELS 3 Zrotation Yrotation Xrotation
						JOINT lelbow
						{
							OFFSET 0.255332 -0.015649 -0.022946
							CHANNELS 3 Zrotation Yrotation Xrotation
							JOINT lwrist
							{
								OFFSET 0.265709 0.012698 -0.007375
								CHANNELS 3 Zrotation Yrotation Xrotation
								End Site
								{
									OFFSET 0.000000 0.000000 0.000000
								}
							}
						}
					}
				}
				JOINT rclavicle
				{
					OFFSET -0.082954 0.112472 -0.023707
					CHANNELS 3 Zrotation Yrotation Xrotation
					JOINT rshoulder
					{
						OFFSET -0.113228 0.046853 -0.008472
						CHANNELS 3 Zrotation Yrotation Xrotation
						JOINT relbow
						{
							OFFSET -0.260127 -0.014369 -0.031269
							CHANNELS 3 Zrotation Yrotation Xrotation
							JOINT rwrist
							{
								OFFSET -0.269108 0.006794 -0.006027
								CHANNELS 3 Zrotation Yrotation Xrotation
								End Site
								{
									OFFSET 0.000000 0.000000 0.000000
								}
							}
						}
					}
				}
			}
		}
	}
}
MOTION
Frames: 16
Frame Time: 0.033333
-0.427847 0.734133 0.978920 61.233665 0.261451 83.099105 -5.201077 -3.749818 14.676123 -6.977193 -25.005128 9.010178 2.605017 4.309595 -18.023901 0.000000 -0.000000 0.000000 6.637877 5.178398 -12.420949 1.682008 0.058105 6.998653 6.795099 -7.519338 -2.981373 0.000000 -0.000000 0.000000 -2.389936 -2.438133 13.310351 2.027375 -1.444566 4.187715 -0.858252 -3.383394 6.780137 6.406708 -29.134007 1.502475 2.157041 -32.728963 4.551282 -25.445658 15.499117 6.832105 -44.534014 5.900548 17.365219 -37.087166 -64.741551 56.742951 29.477115 -30.735803 -3.986415 22.151218 -2.736885 2.175125 32.592759 -6.837833 25.043209 63.207646 64.802929 91.617416 -31.705645 36.593651 10.589103 
-0.415036 0.730311 0.979104 63.356176 0.265364 83.943889 -5.614714 -3.956215 14.398738 -6.766409 -24.688578 9.685239 3.224907 4.335361 -17.533426 0.000000 -0.000000 0.000000 6.153555 4.695533 -12.609336 1.324933 -1.371667 6.701407 5.558658 -10.357339 -3.266457 0.000000 -0.000000 0.000000 -1.705932 -2.615047 13.035895 2.167797 -1.260429 3.720699 -0.677971 -3.351523 6.890758 6.231159 -26.139452 1.400804 0.805131 -28.496496 5.640858 -25.709488 15.645558 6.483695 -44.766034 5.734034 17.181219 -36.918904 -63.971572 57.187100 28.501168 -30.763351 -3.659441 21.978635 -3.244114 2.289550 32.258134 -6.747803 25.290871 63.846297 65.345966 92.276128 -30.522104 36.657376 9.968262 
-0.401470 0.726400 0.981179 65.278992 0.717718 84.493253 -5.583063 -4.167547 14.420315 -6.520993 -25.323081 10.687429 3.093928 4.433540 -16.783170 0.000000 -0.000000 0.000000 5.845438 4.392801 -12.860900 1.644519 -1.988720 7.723387 5.116477 -10.592369 -3.955064 0.000000 -0.000000 0.000000 -0.466835 -2.868781 13.070706 2.374298 -0.918839 3.435507 -0.641325 -3.266710 7.109254 6.235192 -22.610379 0.505748 -0.339797 -24.947181 7.353845 -26.401598 15.741967 5.360824 -44.938550 5.622626 17.192662 -36.097199 -62.964091 56.384908 27.262118 -30.617307 -2.666549 22.514373 -3.817998 2.067675 31.180519 -6.621908 25.340927 65.071788 65.766295 93.279353 -29.726027 36.598505 9.957063 
-0.387879 0.722082 0.984356 66.804179 1.089767 84.828379 -5.476761 -4.771253 14.503223 -6.613247 -26.083405 11.876607 2.733411 4.300316 -15.481421 0.000000 -0.000000 0.000000 5.610589 4.743457 -12.806760 1.835806 -2.362065 8.789452 4.675161 -11.052231 -4.798356 0.000000 -0.000000 0.000000 0.473592 -3.117310 13.418235 2.626480 -0.439694 3.091683 -0.394953 -3.031696 7.140548 5.952403 -19.281659 0.092882 -1.329833 -21.426725 8.308312 -26.908895 15.622253 4.656290 -45.390326 5.699625 17.238028 -34.878580 -62.049941 55.535682 27.660672 -31.345070 -2.053362 22.529620 -4.173194 2.315379 30.324023 -6.841200 25.415059 66.761141 66.064216 95.026446 -30.733617 36.901495 9.410644 
-0.372987 0.717718 0.987377 68.254347 1.031640 85.218643 -5.474580 -5.208508 14.555935 -7.012046 -26.459942 12.884449 2.254747 3.667646 -13.796110 0.000000 -0.000000 0.000000 5.081302 4.272806 -12.552983 2.059668 -2.494513 9.472286 4.317793 -11.238223 -5.742998 0.000000 -0.000000 0.000000 1.172119 -2.932102 13.319075 2.748125 -0.210668 3.137881 -0.230841 -2.911189 7.237974 5.585031 -16.224135 0.105754 -1.680212 -17.935834 8.453418 -27.191387 15.385055 3.992564 -45.668407 5.825778 17.374778 -34.371393 -61.722032 55.199107 28.102935 -31.332793 -2.187882 22.435005 -4.556459 2.684316 29.784518 -7.286832 25.385407 68.556096 66.669046 96.698323 -30.747087 36.683236 9.386391 
-0.356461 0.713050 0.989733 69.219037 0.809517 85.902417 -5.661538 -5.271012 14.276400 -7.405175 -26.500933 13.954037 1.232630 2.991002 -11.782624 0.000000 -0.000000 0.000000 4.821697 3.614375 -12.330140 1.949925 -2.472218 9.738237 3.505293 -11.043112 -6.296003 0.000000 -0.000000 0.000000 1.995722 -2.639301 12.319917 2.681625 -0.048441 3.494923 -0.427568 -2.772827 7.410124 5.140951 -13.167037 0.346417 -1.794657 -14.873999 8.398753 -27.317573 15.359626 3.494828 -45.799265 5.877825 17.405250 -33.949340 -61.516720 55.036671 28.650676 -31.891969 -2.174382 22.313062 -4.975211 2.946942 29.594814 -7.404108 25.329607 69.462072 66.892701 97.742092 -30.968386 36.380760 8.953748 
-0.338854 0.707321 0.991851 70.173684 0.580222 86.431739 -5.721520 -5.140812 13.940654 -7.938293 -26.204653 15.435967 0.078511 2.282550 -10.059887 0.000000 -0.000000 0.000000 4.775395 3.059738 -11.566266 1.610037 -2.530068 9.466893 2.589930 -11.188641 -6.809175 0.000000 -0.000000 0.000000 2.661044 -2.418490 11.588679 2.592915 0.071396 3.548593 -0.570968 -2.701923 7.355561 4.586822 -10.632519 0.800977 -2.231606 -11.862260 8.674777 -27.213477 15.349327 3.419045 -45.873913 6.139672 17.291085 -34.155615 -61.462317 55.654075 28.665629 -32.274046 -1.919679 22.059890 -5.338329 3.215543 29.647557 -7.539976 25.235888 70.265943 66.737199 98.970465 -29.939451 35.851497 8.781650 
-0.321241 0.701666 0.993857 71.466925 0.335862 86.690788 -5.517172 -4.946123 13.399912 -8.948054 -25.780970 17.660474 -0.519322 1.359351 -9.015409 0.000000 -0.000000 0.000000 4.570953 2.846687 -10.603181 1.447188 -2.559274 9.310970 1.750295 -11.743944 -7.340351 0.000000 -0.000000 0.000000 3.099335 -2.491125 11.454843 2.639575 0.125847 3.457120 -0.611282 -2.577070 7.059541 4.097163 -8.523190 0.912771 -2.251060 -9.650046 8.838226 -27.429817 15.472549 3.368969 -45.655148 6.272199 17.006830 -34.561326 -61.120683 56.814687 26.481554 -31.745933 -1.303773 22.273890 -5.657225 3.458569 29.353962 -7.748347 25.152720 71.270575 66.944018 100.310337 -28.615995 35.412169 8.857490 
-0.303244 0.696570 0.995676 73.200539 -0.025119 86.576409 -5.164277 -4.625958 12.426184 -10.726772 -25.025816 21.203144 -1.943622 -0.486882 -7.102536 0.000000 -0.000000 0.000000 4.032995 2.290496 -9.261676 1.490996 -3.144201 9.309450 1.106125 -12.007562 -8.488412 0.000000 -0.000000 0.000000 3.464492 -2.516799 11.640673 2.711265 -0.085307 3.520367 -0.639148 -2.438656 6.836155 3.807384 -7.070493 0.602455 -2.539844 -7.926113 8.820246 -27.906575 15.111227 3.397705 -45.403618 6.193937 16.524840 -34.246965 -60.808975 57.098863 25.809643 -32.148570 -0.575671 22.581143 -5.981180 3.608267 29.107667 -7.792602 24.742660 71.354433 66.970428 100.841421 -28.478498 35.771265 8.769492 
-0.286041 0.691259 0.996900 75.233519 -0.297655 86.209411 -4.333833 -3.972861 10.656111 -12.624078 -23.168431 26.097524 -6.625105 -1.910224 -3.341788 0.000000 -0.000000 0.000000 3.693297 1.367034 -7.937927 1.371265 -3.949190 9.758373 0.317705 -12.241041 -9.915696 0.000000 -0.000000 0.000000 3.693114 -2.458401 12.023957 2.929608 -0.695670 3.697784 -0.577036 -2.498009 6.634789 3.499097 -5.377111 0.495798 -3.070606 -6.333330 8.973184 -28.126105 14.516563 3.317593 -45.168887 6.379339 16.286054 -34.489440 -60.476305 57.927435 25.697423 -32.728776 -0.018627 22.709832 -6.096120 3.662874 28.815812 -7.646502 24.272616 72.041232 66.919973 101.905531 -28.484837 35.741255 8.606196 
-0.270401 0.686044 0.997407 77.306585 -0.294166 85.641529 -2.938304 -3.001912 7.918104 -14.425996 -20.623102 32.159894 -11.850607 -2.771385 -1.187004 0.000000 -0.000000 0.000000 3.698846 0.253943 -6.412234 1.322274 -4.634162 10.100102 -0.467738 -12.463389 -11.340871 0.000000 -0.000000 0.000000 4.092952 -2.182574 12.721065 3.228673 -1.283451 3.706521 -0.464074 -2.607361 6.265117 3.142036 -4.624126 0.980158 -3.078074 -5.234265 9.075222 -28.251002 13.632701 3.812579 -44.964101 6.687551 15.697511 -35.134210 -60.349918 59.206408 25.766024 -32.950054 0.033215 22.439421 -6.029586 3.989983 28.742019 -7.944544 23.392651 73.446291 66.795900 103.912117 -28.841599 35.573271 8.103262 
-0.254993 0.680956 0.997715 78.840742 -0.291106 85.028553 -1.628404 -2.122298 4.998428 -15.035534 -16.262822 37.612473 -12.712971 -0.595636 -3.605160 0.000000 -0.000000 0.000000 3.744907 -0.825510 -4.652675 1.390687 -4.838444 10.105254 -0.843939 -12.578104 -12.642812 0.000000 -0.000000 0.000000 4.342344 -1.644894 13.005850 3.461933 -1.675256 3.841857 -0.393689 -2.455397 6.466342 3.112332 -4.140268 1.392299 -2.861780 -4.641746 9.715593 -28.437553 12.757228 3.589509 -44.554698 6.983906 15.640315 -36.181593 -59.918416 60.081568 26.566929 -32.852027 -0.261610 22.565623 -5.996788 4.133776 28.068378 -8.003784 22.900574 74.621122 66.454905 105.048111 -29.788400 35.256048 7.524555 
-0.239591 0.675645 0.998210 80.244417 -0.497268 84.386058 -0.569720 -1.332059 2.349242 -13.240506 -10.389686 41.170413 -8.585427 2.882287 -10.120579 0.000000 -0.000000 0.000000 3.602570 -1.876968 -2.649003 1.422396 -4.620359 9.791749 -0.945725 -12.967543 -13.771957 0.000000 -0.000000 0.000000 4.199368 -0.856516 13.017036 3.658207 -1.852510 4.043363 -0.206907 -2.444383 6.853902 3.273684 -4.561082 1.854796 -2.925928 -3.812239 10.437230 -28.603838 12.243964 3.824056 -44.448955 6.658863 15.261175 -36.647644 -59.498588 60.730449 26.978724 -32.794224 0.211145 22.493799 -5.937493 4.393078 27.865296 -7.987202 22.632078 74.818960 66.533546 104.647982 -29.750551 35.425421 6.758661 
-0.225441 0.670780 0.998863 81.070420 -1.036879 83.847059 0.037089 -0.971489 -0.169350 -10.043151 -4.583440 42.801809 -4.906395 7.531028 -12.832067 0.000000 -0.000000 0.000000 3.148548 -2.568852 -1.024070 1.463681 -4.064438 9.684425 -1.268509 -13.370251 -14.548159 0.000000 -0.000000 0.000000 3.825144 0.025725 13.274843 3.499019 -1.792425 4.029317 -0.150020 -2.314461 7.231794 3.378630 -4.825253 2.311365 -2.788234 -3.304696 11.300706 -28.588408 12.215157 3.903194 -44.539683 6.337118 14.874685 -37.038271 -59.685763 60.704484 27.364611 -32.261273 -0.253096 22.492829 -5.853520 4.684236 27.988113 -7.812876 22.775356 73.894618 66.538640 103.396625 -30.670826 35.700550 6.989696 
-0.212329 0.666303 0.999661 81.645799 -1.696741 83.235367 0.194961 -0.814014 -2.181080 -7.106241 -0.786858 42.779728 -2.347373 10.390633 -14.401542 0.000000 -0.000000 0.000000 2.667128 -2.891631 0.592770 1.206380 -3.628309 9.630719 -1.143765 -13.498052 -15.733084 0.000000 -0.000000 0.000000 3.414037 0.564990 14.137801 3.102182 -1.687688 3.593212 -0.203348 -1.879134 7.504715 3.323938 -5.004604 2.429160 -2.742429 -3.258942 12.023915 -28.388228 12.473830 3.800802 -44.554045 6.073886 14.422186 -37.623048 -59.776468 61.539634 27.000880 -32.280564 0.148149 22.346331 -5.864000 4.965698 28.463931 -7.706908 22.745623 73.163967 66.390488 102.438548 -30.958994 35.976787 7.204269 
-0.199855 0.662362 0.999957 82.115580 -2.267320 82.992602 0.255698 -0.735165 -4.323210 -5.596242 0.853619 41.510824 -0.875472 12.201367 -15.140686 0.000000 -0.000000 0.000000 2.292688 -3.211907 1.612506 0.938457 -3.029403 9.856714 -1.283816 -13.634052 -16.642283 0.000000 -0.000000 0.000000 3.169243 1.009979 14.445107 2.695093 -1.492091 3.387061 -0.394209 -1.506341 7.779437 3.033370 -5.088188 2.469300 -2.876901 -3.351329 12.404685 -28.307222 12.786618 3.593704 -44.218078 5.944115 14.202918 -38.333675 -60.037589 62.212745 26.664656 -32.088771 0.350531 22.451525 -5.996896 5.107331 28.664651 -7.654475 22.737537 72.623301 66.228998 101.602234 -30.445466 36.069982 7.649509 
